<?xml version="1.0" encoding="utf-8"?>
<!-- Generator: Adobe Illustrator 28.1.0, SVG Export Plug-In . SVG Version: 6.00 Build 0)  -->
<svg version="1.1" id="Layer_1" xmlns="http://www.w3.org/2000/svg" xmlns:xlink="http://www.w3.org/1999/xlink" x="0px" y="0px"
	 viewBox="0 0 500 181.1" style="enable-background:new 0 0 500 181.1;" xml:space="preserve">
<style type="text/css">
	.st0{fill:#D4E362;}
</style>
<g>
	<g>
		<path class="st0" d="M76.44,48.87c11.39,0,19.82,2.24,25.29,6.72c5.47,4.48,7.6,10.95,6.39,19.4c-0.45,2.78-1.21,5.5-2.3,8.18
			c-1.88,4.43-4.75,8.04-8.59,10.81c-3.84,2.78-8.25,4.16-13.23,4.16h-9.19c-1.02,5.42-2.49,10.55-4.4,15.38
			c-1.91,4.83-4.48,8.57-7.7,11.2c-3.22,2.63-7.29,3.36-12.2,2.18c-4.56-1.31-7.64-3.93-9.24-7.87c-1.6-3.94-1.24-8.56,1.05-13.85
			h2.82c1.24,1.53,2.74,2.16,4.5,1.89c1.75-0.27,3.39-1.27,4.9-2.99c1.51-1.72,2.58-3.99,3.18-6.79l4.26-21.92l2.73-14.07
			c-3,1.31-5.64,3.09-7.92,5.36c-2.28,2.27-3.82,4.82-4.62,7.66c-1.05,3.48-0.43,7.03,1.87,10.67l-0.86,2.68
			c-5.74,0.61-10.22-0.47-13.42-3.23c-3.21-2.76-4.81-6.47-4.81-11.13c0-4.98,1.63-9.3,4.88-12.97c3.25-3.67,7.98-6.5,14.16-8.49
			C60.18,49.87,67.67,48.87,76.44,48.87z M87.25,73.32c0.19-0.89,0.35-2,0.48-3.33c0.13-1.32,0.12-2.66-0.02-4s-0.53-2.47-1.15-3.4
			c-0.62-0.92-1.62-1.39-2.99-1.39h-1.58l-2.73,14.16l-1.87,9.67h1.44c1.66,0,3.27-1.01,4.83-3.04
			C85.23,79.98,86.42,77.09,87.25,73.32z"/>
		<path class="st0" d="M106.73,87.87c0.22-1.18,0.45-2.44,0.67-3.78c0.7-4.53,1.63-9.43,2.8-14.71c1.16-5.28,2.73-10.03,4.69-14.24
			s4.47-6.97,7.54-8.28c2.52-0.86,5.06-0.75,7.61,0.33c2.55,1.08,4.48,2.92,5.79,5.5c-1.85,1.44-3.47,4.06-4.86,7.87
			c-1.39,3.81-2.58,7.95-3.56,12.42c-0.99,4.47-1.79,8.42-2.39,11.87c-0.22,1.12-0.42,2.12-0.57,3.01c-0.73,3.64-1.29,6.77-1.67,9.4
			c-0.38,2.63-0.5,4.67-0.36,6.12s0.68,2.18,1.6,2.18c1.28,0,2.58-0.89,3.92-2.68c1.34-1.79,2.56-4.02,3.66-6.7s1.99-5.46,2.66-8.33
			h3.73c-0.83,4.34-1.86,8.43-3.09,12.27c-1.23,3.84-2.71,7.25-4.45,10.22c-1.74,2.97-3.81,5.29-6.22,6.99
			c-2.41,1.69-5.22,2.54-8.45,2.54c-3.51,0-6.11-1.32-7.8-3.97s-2.61-6.37-2.75-11.15S105.58,94.35,106.73,87.87z"/>
		<path class="st0" d="M177.55,105.62c1.31,0,2.62-0.89,3.95-2.68c1.32-1.79,2.54-4.02,3.66-6.7s1.99-5.47,2.63-8.37h3.73
			c-0.83,4.37-1.85,8.48-3.06,12.32c-1.21,3.85-2.7,7.24-4.45,10.19c-1.75,2.95-3.83,5.28-6.22,6.99s-5.22,2.56-8.47,2.56
			c-2.46,0-4.43-0.51-5.93-1.53s-2.63-2.39-3.4-4.12c-1.66,1.75-3.57,3.15-5.74,4.19c-2.17,1.04-4.61,1.56-7.32,1.56
			c-3.29,0-6.02-0.75-8.21-2.25c-2.19-1.5-3.87-3.51-5.05-6.03c0.61-1.31,1.24-3.25,1.89-5.81c0.65-2.57,1.15-5.16,1.48-7.78
			c0.33-2.62,0.34-4.64,0.02-6.08c-1.24,5.65-2.89,10.69-4.93,15.12c-0.73-3.48-0.8-7.19-0.19-11.15c0.42-2.78,1.18-5.5,2.3-8.18
			c1.21-2.9,2.78-5.54,4.69-7.92c1.91-2.38,4.19-4.28,6.82-5.72c2.63-1.44,5.61-2.15,8.92-2.15c2.23,0,4.21,0.39,5.93,1.17
			c1.72,0.78,3.21,1.84,4.45,3.18c1.82-2.78,4.04-4.61,6.65-5.5c2.49-0.86,4.99-0.9,7.51-0.12c2.52,0.78,4.48,2.31,5.89,4.57
			c-1.37,1.05-2.62,2.82-3.76,5.31c-1.13,2.49-2.11,5.18-2.94,8.06c-0.83,2.89-1.48,5.46-1.96,7.73c-0.45,2.9-0.61,5.15-0.5,6.75
			C176.06,104.83,176.59,105.62,177.55,105.62z M158.79,98.97c0.51-3.86,1.16-7.56,1.96-11.1c-0.03-1.63-0.22-2.95-0.55-3.97
			c-0.33-1.02-0.84-1.56-1.51-1.63c-1.28,0.03-2.58,1.17-3.9,3.4c-1.32,2.23-2.35,5.01-3.09,8.33c-0.61,3.13-0.72,5.88-0.33,8.25
			s1.15,3.64,2.3,3.8C155.4,106.05,157.1,103.69,158.79,98.97z"/>
		<path class="st0" d="M243.25,87.87c-0.83,4.37-1.86,8.48-3.09,12.32c-1.23,3.85-2.71,7.24-4.45,10.19s-3.81,5.28-6.22,6.99
			c-2.41,1.71-5.22,2.56-8.45,2.56c-3.92,0-6.71-1.14-8.35-3.42c-1.64-2.28-2.49-5.49-2.54-9.64c-0.05-4.15,0.45-9.06,1.51-14.74
			c0.1-0.54,0.17-1.3,0.24-2.27c0.06-0.97,0.03-1.88-0.1-2.73c-0.13-0.84-0.48-1.27-1.05-1.27c-0.96,0-1.94,1.01-2.94,3.04
			s-1.99,4.7-2.94,8.02c-0.96,3.32-1.89,6.97-2.8,10.96c-0.91,3.99-1.75,8.01-2.51,12.06h-7.51h-9.76l0.19-0.96
			c1.12-1.24,2.37-3.42,3.76-6.53c1.39-3.11,2.54-6.52,3.45-10.24c0.91-3.71,1.22-7.09,0.93-10.12c-1.5,6.99-3.64,12.98-6.41,17.99
			l2.01-10.29c0.64-3.09,1.17-7.07,1.58-11.92c0.16-2.55,0.15-4.95-0.02-7.2s-0.65-4.01-1.41-5.29c2.26-2.33,4.86-3.68,7.78-4.04
			c2.92-0.37,5.43,0.25,7.54,1.84c1.98,1.6,3.29,3.48,3.92,5.65c1.53-2.07,3.24-3.72,5.12-4.93c1.88-1.21,3.97-1.82,6.27-1.82
			c3.76,0,6.99,1.41,9.69,4.23c2.7,2.82,3.71,6.68,3.04,11.56c-0.73,3.64-1.29,6.78-1.67,9.43c-0.38,2.65-0.5,4.7-0.36,6.15
			c0.14,1.45,0.68,2.18,1.6,2.18c1.28,0,2.58-0.89,3.92-2.68c1.34-1.79,2.56-4.02,3.66-6.7s1.99-5.47,2.66-8.37H243.25z"/>
		<path class="st0" d="M270.48,59.78c1.47,1.21,2.42,2.75,2.87,4.62c0.45,1.87,0.33,3.58-0.33,5.14c-1.24,2.33-2.97,3.67-5.17,4.02
			c-2.2,0.35-4.43,0.37-6.7,0.05c-0.38-0.03-0.75-0.06-1.1-0.1c-0.92,4.31-1.69,8.1-2.3,11.39c-0.19,1.12-0.37,2.11-0.53,2.97
			c-0.73,3.64-1.29,6.78-1.67,9.43c-0.38,2.65-0.5,4.7-0.36,6.15c0.14,1.45,0.66,2.18,1.55,2.18c1.31,0,2.63-0.89,3.97-2.68
			c1.34-1.79,2.56-4.03,3.66-6.72s1.97-5.48,2.61-8.35h3.73c-0.83,4.34-1.85,8.44-3.06,12.3c-1.21,3.86-2.69,7.27-4.43,10.22
			c-1.74,2.95-3.81,5.28-6.22,6.99c-2.41,1.71-5.24,2.56-8.49,2.56c-2.52,0-4.56-0.71-6.12-2.13c-1.56-1.42-2.71-3.44-3.45-6.05
			c0.96-2.11,1.85-5.27,2.68-9.5c0.83-4.23,1.08-7.62,0.77-10.17c-1.15,5.07-2.6,9.67-4.35,13.78c-0.25-5.01,0.24-11.01,1.48-17.99
			c0.19-1.15,0.4-2.39,0.62-3.73c0.57-3.41,1.26-7.11,2.06-11.1c-1.63,0.13-3.16,0.38-4.59,0.74c-1.44,0.37-2.5,0.9-3.21,1.6
			c-1.47-1.21-2.42-2.75-2.87-4.62s-0.33-3.58,0.33-5.14c1.24-2.33,2.97-3.67,5.17-4.02c2.2-0.35,4.43-0.37,6.7-0.05
			c0.45,0.03,0.89,0.06,1.34,0.1c1.15-3.6,2.55-6.74,4.21-9.4c1.66-2.66,3.64-4.46,5.93-5.38c2.49-0.83,5.02-0.71,7.58,0.36
			c2.57,1.07,4.51,2.91,5.81,5.53c-2.11,1.66-3.91,4.77-5.41,9.33c1.53-0.13,2.96-0.37,4.28-0.74
			C268.81,60.97,269.81,60.45,270.48,59.78z M238.9,111.61c0.03,0.03,0.05,0.06,0.05,0.1v0.05L238.9,111.61z"/>
		<path class="st0" d="M336.61,87.87l-3.01,7.7c-1.31,3.22-2.66,7.34-4.07,12.35c3.32,0.99,6.44,1.67,9.36,2.03
			c2.92,0.37,5.25,0.07,7.01-0.88c1.21-0.73,2.18-1.78,2.9-3.13c0.72-1.36,0.95-2.73,0.69-4.14l1.48-2.39
			c4.75,0.73,8.29,2.77,10.62,6.1c2.33,3.33,3.05,6.98,2.15,10.93c-1.08,3.92-3.45,6.92-7.11,8.97c-3.65,2.06-7.95,2.53-12.9,1.41
			c-5.36-1.5-10.1-3.25-14.21-5.26c-3.89-1.85-7.95-3.37-12.18-4.55c-4.23-1.18-9.31-1.47-15.24-0.86
			c-1.12-1.56-1.63-3.31-1.55-5.24c0.08-1.93,0.69-3.52,1.84-4.76c1.47-1.47,3.13-2.4,5-2.8c1.87-0.4,3.77-0.45,5.72-0.17
			c0.48-1.15,0.96-2.28,1.44-3.4c0.64-1.47,1.23-2.87,1.77-4.21l5.17-13.3c-3-0.92-5.4-1.16-7.2-0.69c-1.8,0.46-3.05,1.11-3.76,1.94
			c-1.37,1.47-1.98,3.11-1.82,4.93c0.16,1.82,0.72,3.51,1.67,5.07l-0.86,2.68c-5.74,0.57-10.22-0.52-13.42-3.28
			c-3.21-2.76-4.81-6.45-4.81-11.08c0-2.65,0.69-5.1,2.08-7.37c1.39-2.26,3.34-4.1,5.86-5.5c2.52-1.4,5.49-2.11,8.9-2.11
			c3.73,0,7.03,0.53,9.88,1.6c2.85,1.07,5.54,2.45,8.06,4.14c3.64-7.24,7.66-12.65,12.06-16.22c4.4-3.57,8.8-5.36,13.21-5.36
			c3.35,0,6.02,0.77,8.02,2.3c1.99,1.53,3.41,3.49,4.26,5.86c0.84,2.38,1.2,4.89,1.05,7.54c-0.14,2.65-0.68,5.14-1.6,7.47
			c-1.28,3.16-3.25,5.97-5.91,8.45c-2.66,2.47-5.77,4.23-9.33,5.29C344.28,88.97,340.54,88.96,336.61,87.87z M355.66,72.18
			c0.86-2.27,1.14-4.24,0.84-5.93c-0.3-1.69-1.13-2.58-2.49-2.66c-1.36-0.08-3.18,1.19-5.48,3.8c-2.3,2.62-5.01,7.1-8.13,13.45
			c2.39,1.08,5.11,0.87,8.16-0.65C351.6,78.68,353.97,76,355.66,72.18z"/>
		<path class="st0" d="M397.58,87.87c-0.83,4.37-1.85,8.48-3.06,12.32c-1.21,3.85-2.69,7.25-4.43,10.22
			c-1.74,2.97-3.81,5.3-6.22,6.99c-2.41,1.69-5.24,2.54-8.49,2.54c-3.48,0-6.05-1.32-7.73-3.97c-1.68-2.65-2.55-6.37-2.63-11.17
			c-0.08-4.8,0.52-10.44,1.79-16.92l2.44-12.44h17.27l-2.44,12.44c-0.73,3.67-1.29,6.82-1.67,9.45c-0.38,2.63-0.5,4.67-0.36,6.12
			c0.14,1.45,0.66,2.18,1.55,2.18c1.31,0,2.63-0.89,3.97-2.68c1.34-1.79,2.56-4.02,3.66-6.7s1.97-5.47,2.61-8.37H397.58z
			 M372.55,54.61c0.89-2.17,2.2-4,3.92-5.5s3.8-2.25,6.22-2.25c1.56,0,2.86,0.36,3.88,1.08c1.02,0.72,1.81,1.66,2.37,2.82
			c0.56,1.16,0.92,2.45,1.08,3.85c0.16,1.34,0.13,2.65-0.1,3.92c-0.61,3.73-1.88,6.62-3.83,8.66c-1.95,2.04-4.27,3.06-6.99,3.06
			c-1.98,0-3.59-0.57-4.83-1.7s-2.11-2.58-2.58-4.33c-0.48-1.75-0.57-3.65-0.29-5.69C371.62,57.23,372.01,55.92,372.55,54.61z"/>
		<path class="st0" d="M410.21,101.84c2.07,4.59,3.47,9.94,4.19,16.03c0.72,6.09,0.46,11.9-0.79,17.42
			c-0.86,3.35-2.13,6.09-3.8,8.23c-1.67,2.14-3.58,3.71-5.72,4.71c-2.14,1-4.26,1.51-6.36,1.51c-2.62,0-4.67-0.85-6.17-2.54
			c-1.5-1.69-2.57-3.97-3.21-6.84c-0.64-2.87-0.95-6.12-0.93-9.74c0.02-3.62,0.25-7.38,0.69-11.27c1.21-1.28,2.61-3.56,4.19-6.84
			c1.58-3.29,2.86-6.82,3.83-10.6c0.97-3.78,1.16-7.06,0.55-9.83c-1.69,7.91-4.19,14.48-7.51,19.72c1.24-7.56,2.47-13.94,3.68-19.14
			c0.42-1.95,0.75-3.54,1-4.79c0.89-4.91,1.84-9.31,2.85-13.18s2.34-7.12,4.02-9.74c1.67-2.62,3.95-4.48,6.82-5.6
			c2.49-0.86,5.01-0.75,7.56,0.33c2.55,1.08,4.5,2.92,5.84,5.5c-1.5,1.15-2.86,3.13-4.07,5.93c-1.21,2.81-2.24,5.77-3.09,8.9
			c-0.85,3.13-1.46,5.74-1.84,7.85c-0.41,2.9,0.21,4.64,1.87,5.22c1.66,0.57,3.49,0.34,5.48-0.69c1.99-1.04,3.28-2.54,3.85-4.52
			h3.73c-0.19,1.05-0.56,2.36-1.1,3.92c-0.54,1.56-1.33,3.12-2.37,4.67c-1.04,1.55-2.42,2.86-4.14,3.92
			c-1.72,1.07-3.86,1.6-6.41,1.6C411.92,101.99,411.04,101.94,410.21,101.84z M406.19,134.86c0.77-3,1.12-6.43,1.05-10.29
			c-0.06-3.86-0.69-7.05-1.87-9.57c-0.57,4.59-1.07,8.44-1.48,11.53c-0.35,2.46-0.62,4.53-0.81,6.22c-0.35,3.09-0.37,5.1-0.05,6.01
			c0.32,0.91,0.79,0.97,1.41,0.19C405.07,138.17,405.65,136.81,406.19,134.86z"/>
		<path class="st0" d="M465.05,87.87c-0.67,4.08-1.69,8.03-3.06,11.84c-1.37,3.81-3.17,7.23-5.41,10.27
			c-2.23,3.03-4.99,5.45-8.25,7.25c-3.27,1.8-7.17,2.71-11.7,2.71c-3.22,0-5.97-0.75-8.25-2.25c-2.28-1.5-4.08-3.5-5.38-6.01
			c-1.31-2.5-2.11-5.3-2.39-8.4c1.05-0.57,2.06-1.65,3.01-3.23c0.96-1.58,1.71-3.27,2.25-5.07c0.54-1.8,0.67-3.34,0.38-4.62
			c-0.42,1.53-1.08,3.13-1.99,4.79s-2.16,3.11-3.76,4.35c0.03-1.18,0.14-2.38,0.33-3.59c0.42-2.74,1.18-5.42,2.3-8.04
			c1.21-2.93,2.82-5.6,4.81-7.99c1.99-2.39,4.34-4.31,7.03-5.77c2.7-1.45,5.7-2.18,9.02-2.18c2.49,0,4.57,0.48,6.25,1.44
			s2.99,2.21,3.95,3.76c0.96,1.55,1.59,3.25,1.89,5.12c0.3,1.87,0.31,3.74,0.02,5.62c-0.29,1.82-0.89,3.24-1.82,4.26
			c-1.69,2.3-3.99,4.04-6.89,5.22c-2.9,1.18-5.92,1.88-9.04,2.11c0.32,2.23,1,4.08,2.03,5.55c1.04,1.47,2.34,2.2,3.9,2.2
			c2.2,0,4.33-0.81,6.39-2.44s3.99-3.89,5.79-6.79c1.8-2.9,3.42-6.27,4.86-10.1H465.05z M444.95,81.08c-1.25,0-2.45,1.16-3.61,3.47
			c-1.17,2.31-2.07,5.18-2.7,8.59c0.92-0.1,1.77-0.24,2.54-0.43c2.14-0.67,3.59-1.47,4.36-2.39s1.21-1.74,1.34-2.44
			c0.25-1.08,0.39-2.14,0.41-3.16c0.02-1.02-0.15-1.88-0.5-2.58C446.42,81.43,445.81,81.08,444.95,81.08z"/>
	</g>
</g>
</svg>
