<?xml version="1.0" encoding="utf-8"?>
<!-- Generator: Adobe Illustrator 28.1.0, SVG Export Plug-In . SVG Version: 6.00 Build 0)  -->
<svg version="1.1" id="Layer_1" xmlns="http://www.w3.org/2000/svg" xmlns:xlink="http://www.w3.org/1999/xlink" x="0px" y="0px"
	 viewBox="0 0 500 292.12" style="enable-background:new 0 0 500 292.12;" xml:space="preserve">
<style type="text/css">
	.st0{fill:#457D1C;}
	.st1{fill:#8ABA10;}
</style>
<g>
	<g>
		<path class="st0" d="M430.33,162.17c-64.31,150.47-133.13,107.51-286.58,87.15c-66.9-8.89-108.63,2.35-108.63,2.35
			c19.21-25.75,50.04-58.34,95.89-74.59c67.11-23.81,111.04,7.02,170.42-3.71c45.26-8.17,104.07-41.42,162.42-152.18
			C463.85,21.18,474.04,59.93,430.33,162.17z"/>
		<path class="st1" d="M463.85,21.18C405.5,131.95,346.69,165.19,301.43,173.36c-59.38,10.73-103.31-20.1-170.42,3.71
			c-45.85,16.26-76.68,48.84-95.89,74.59c0,0,32-203.46,214.13-202.22C435.79,50.71,463.85,21.18,463.85,21.18z"/>
	</g>
</g>
</svg>
